# xmcd
#
# Track frame offsets:
#	150
#	17371
#	34260
#	50231
#	65627
#	82747
#	105254
#	121947
#	137567
#	150863
#	160820
#	198880
#	216627
#	234442
#	255321
#	278508
#	292467
#	320391
#
# Disc length: 4674 seconds
#
# Revision: 0
# Processed by: cddbd v1.5.2PL0 Copyright (c) Steve Scherf et al.
# Submitted via: dBpowerAMP V4.0
#
DISCID=f1124012
DTITLE=MASTRUZ COM LEITE - AO VIVO EM CARUARU
DYEAR=2007
DGENRE=FORRO
TTITLE0=DOCE MISTERIO
TTITLE1=BOMBA DE CABARE
TTITLE2=NAO VA EMBORA
TTITLE3=EU NÃO ACEITO
TTITLE4=SO SE EU FOSSE LOUCA
TTITLE5=ALTA TENSAO
TTITLE6=A PRAIA
TTITLE7=CAIU A FICHA
TTITLE8=MENINO CAGADO
TTITLE9=BEM QUE MAMAE ME DISSE
TTITLE10=SAGA DE UM VAQUEIRO
TTITLE11=SOU MASTRUZEIRO
TTITLE12=POUT-POURRI - 01
TTITLE13=POUT-POURRI - 02
TTITLE14=POUT-POURRI - 03
TTITLE15=POUT-POURRI - 04
TTITLE16=POUT-POURRI - 05
TTITLE17=POUT-POURRI - 06
EXTD=
EXTT0=
EXTT1=
EXTT2=
EXTT3=
EXTT4=
EXTT5=
EXTT6=
EXTT7=
EXTT8=
EXTT9=
EXTT10=
EXTT11=
EXTT12=
EXTT13=
EXTT14=
EXTT15=
EXTT16=
EXTT17=
PLAYORDER=
